<svg width="92" height="38" viewBox="0 0 92 38" fill="none" xmlns="http://www.w3.org/2000/svg">
<path d="M27.0108 23.5748C26.629 24.2362 25.5314 24.6893 23.6083 24.4949C21.7619 24.3082 19.4465 23.5377 17.1251 22.1974C14.8037 20.8572 12.9787 19.2372 11.8939 17.7316C10.764 16.1633 10.6075 14.9862 10.9894 14.3248C11.3712 13.6635 12.4688 13.2104 14.3919 13.4048C16.2383 13.5915 18.5537 14.362 20.8751 15.7023C23.1965 17.0425 25.0215 18.6625 26.1063 20.1681C27.2362 21.7364 27.3927 22.9135 27.0108 23.5748Z" stroke="#7FC8F1" stroke-width="1.5"/>
<path d="M19 28.1992C18.2363 28.1992 17.2952 27.4752 16.502 25.7125C15.7404 24.0202 15.25 21.6297 15.25 18.9492C15.25 16.2687 15.7404 13.8782 16.502 12.1859C17.2952 10.4232 18.2363 9.69922 19 9.69922C19.7637 9.69922 20.7048 10.4232 21.498 12.1859C22.2596 13.8782 22.75 16.2687 22.75 18.9492C22.75 21.6297 22.2596 24.0202 21.498 25.7125C20.7048 27.4752 19.7637 28.1992 19 28.1992Z" stroke="#58B3E7" stroke-width="1.5"/>
<path d="M10.9892 23.5746C10.6073 22.9132 10.7638 21.7361 11.8937 20.1678C12.9785 18.6622 14.8035 17.0422 17.1249 15.702C19.4463 14.3617 21.7617 13.5912 23.6081 13.4046C25.5312 13.2101 26.6288 13.6632 27.0106 14.3246C27.3925 14.9859 27.236 16.163 26.1061 17.7313C25.0213 19.2369 23.1963 20.8569 20.8749 22.1972C18.5535 23.5374 16.2381 24.3079 14.3917 24.4946C12.4686 24.689 11.371 24.2359 10.9892 23.5746Z" stroke="#30A8EB" stroke-width="1.5"/>
<path fill-rule="evenodd" clip-rule="evenodd" d="M32 7C32 6.44772 31.5523 6 31 6H7C6.44772 6 6 6.44772 6 7V31C6 31.5523 6.44772 32 7 32H31C31.5523 32 32 31.5523 32 31V7ZM30.1431 8.85714C30.1431 8.30486 29.6954 7.85714 29.1431 7.85714H8.85742C8.30514 7.85714 7.85742 8.30486 7.85742 8.85714V29.1429C7.85742 29.6951 8.30514 30.1429 8.85742 30.1429H29.1431C29.6954 30.1429 30.1431 29.6951 30.1431 29.1429V8.85714Z" fill="#7BAECB"/>
<path fill-rule="evenodd" clip-rule="evenodd" d="M19 38C29.4934 38 38 29.4934 38 19C38 8.50659 29.4934 0 19 0C8.50659 0 0 8.50659 0 19C0 29.4934 8.50659 38 19 38ZM18.9994 36.0998C28.4435 36.0998 36.0994 28.4439 36.0994 18.9998C36.0994 9.55573 28.4435 1.89979 18.9994 1.89979C9.55535 1.89979 1.89941 9.55573 1.89941 18.9998C1.89941 28.4439 9.55535 36.0998 18.9994 36.0998Z" fill="#7BAECB"/>
<path d="M45.1477 12.9886C45.1477 12.5852 45.3693 12.3636 45.7727 12.3636H49.5114C52.1818 12.3636 53.6136 13.8636 53.6136 16.0852C53.6136 17.6648 52.892 18.8352 51.5227 19.3864L53.6307 23.2557C53.8636 23.6875 53.6818 24 53.1932 24H52.1875C51.8409 24 51.6136 23.8636 51.4489 23.5568L49.4034 19.7386H47.2557V23.375C47.2557 23.7784 47.0341 24 46.6307 24H45.7727C45.3693 24 45.1477 23.7784 45.1477 23.375V12.9886ZM47.2557 17.9886H49.1989C50.7614 17.9886 51.4659 17.3239 51.4659 16.0852C51.4659 14.8466 50.7614 14.125 49.1875 14.125H47.2557V17.9886ZM65.1165 23.375C65.1165 23.7784 64.8949 24 64.4915 24H63.7244C63.3892 24 63.1619 23.875 62.9688 23.6023L57.7585 16.0739H57.6619V23.375C57.6619 23.7784 57.4403 24 57.0369 24H56.179C55.7756 24 55.554 23.7784 55.554 23.375V12.9886C55.554 12.5852 55.7756 12.3636 56.179 12.3636H56.9574C57.2926 12.3636 57.5256 12.4886 57.7131 12.7614L62.9176 20.2955H63.0199V12.9886C63.0199 12.5852 63.2415 12.3636 63.6449 12.3636H64.4915C64.8949 12.3636 65.1165 12.5852 65.1165 12.9886V23.375Z" fill="#30A7EB"/>
<path d="M69.4702 12.3636C69.8281 12.3636 70.0554 12.5114 70.1918 12.8466L73.4474 20.7955H73.5838L76.8395 12.8466C76.9759 12.5114 77.2031 12.3636 77.5611 12.3636H78.9929C79.3963 12.3636 79.6179 12.5852 79.6179 12.9886V23.375C79.6179 23.7784 79.3963 24 78.9929 24H78.2202C77.8168 24 77.5952 23.7784 77.5952 23.375V16.0057H77.4872L74.4702 23.4773C74.3338 23.8068 74.1065 23.9659 73.7486 23.9659H73.2827C72.9247 23.9659 72.6918 23.8068 72.5611 23.4773L69.544 15.9886H69.4361V23.375C69.4361 23.7784 69.2145 24 68.8111 24H68.0384C67.6349 24 67.4134 23.7784 67.4134 23.375V12.9886C67.4134 12.5852 67.6349 12.3636 68.0384 12.3636H69.4702ZM85.9759 24.1591C83.8054 24.1591 82.1804 23.0966 81.794 21.4943C81.6974 21.0795 81.9588 20.8352 82.3793 20.8352H83.2884C83.6577 20.8352 83.8168 21.0227 83.9759 21.3693C84.2713 22.0057 85.0384 22.392 85.9702 22.392C87.2145 22.392 88.1065 21.6875 88.1009 20.6591C88.1065 19.608 87.2315 18.8693 85.7599 18.8693H85.3565C84.9531 18.8693 84.7315 18.6477 84.7315 18.2443V17.8693C84.7315 17.4659 84.9531 17.2443 85.3565 17.2443H85.7599C86.9645 17.2443 87.8054 16.5682 87.7997 15.5511C87.8054 14.5739 87.0838 13.9148 85.9986 13.9148C85.1406 13.9148 84.3849 14.3011 84.1009 14.9602C83.9531 15.3125 83.7997 15.5 83.4247 15.5H82.6179C82.1974 15.5 81.9418 15.2557 82.0384 14.8409C82.4134 13.2557 84.0156 12.2045 86.0099 12.2045C88.3338 12.2045 89.8452 13.6534 89.8395 15.4261C89.8452 16.733 88.9986 17.6705 87.7372 17.9432V18.0341C89.3679 18.267 90.277 19.3125 90.2713 20.767C90.277 22.733 88.4645 24.1591 85.9759 24.1591Z" fill="#7BAECB"/>
</svg>
