<svg width="667" height="257" viewBox="0 0 667 257" fill="none" xmlns="http://www.w3.org/2000/svg">
<path d="M298.182 86.9091C298.182 83.6818 299.955 81.9091 303.182 81.9091H333.091C354.455 81.9091 365.909 93.9091 365.909 111.682C365.909 124.318 360.136 133.682 349.182 138.091L366.045 169.045C367.909 172.5 366.455 175 362.545 175H354.5C351.727 175 349.909 173.909 348.591 171.455L332.227 140.909H315.045V170C315.045 173.227 313.273 175 310.045 175H303.182C299.955 175 298.182 173.227 298.182 170V86.9091ZM315.045 126.909H330.591C343.091 126.909 348.727 121.591 348.727 111.682C348.727 101.773 343.091 96 330.5 96H315.045V126.909ZM457.932 170C457.932 173.227 456.159 175 452.932 175H446.795C444.114 175 442.295 174 440.75 171.818L399.068 111.591H398.295V170C398.295 173.227 396.523 175 393.295 175H386.432C383.205 175 381.432 173.227 381.432 170V86.9091C381.432 83.6818 383.205 81.9091 386.432 81.9091H392.659C395.341 81.9091 397.205 82.9091 398.705 85.0909L440.341 145.364H441.159V86.9091C441.159 83.6818 442.932 81.9091 446.159 81.9091H452.932C456.159 81.9091 457.932 83.6818 457.932 86.9091V170Z" fill="#33AADD"/>
<path d="M492.761 81.9091C495.625 81.9091 497.443 83.0909 498.534 85.7727L524.58 149.364H525.67L551.716 85.7727C552.807 83.0909 554.625 81.9091 557.489 81.9091H568.943C572.17 81.9091 573.943 83.6818 573.943 86.9091V170C573.943 173.227 572.17 175 568.943 175H562.761C559.534 175 557.761 173.227 557.761 170V111.045H556.898L532.761 170.818C531.67 173.455 529.852 174.727 526.989 174.727H523.261C520.398 174.727 518.534 173.455 517.489 170.818L493.352 110.909H492.489V170C492.489 173.227 490.716 175 487.489 175H481.307C478.08 175 476.307 173.227 476.307 170V86.9091C476.307 83.6818 478.08 81.9091 481.307 81.9091H492.761ZM624.807 176.273C607.443 176.273 594.443 167.773 591.352 154.955C590.58 151.636 592.67 149.682 596.034 149.682H603.307C606.261 149.682 607.534 151.182 608.807 153.955C611.17 159.045 617.307 162.136 624.761 162.136C634.716 162.136 641.852 156.5 641.807 148.273C641.852 139.864 634.852 133.955 623.08 133.955H619.852C616.625 133.955 614.852 132.182 614.852 128.955V125.955C614.852 122.727 616.625 120.955 619.852 120.955H623.08C632.716 120.955 639.443 115.545 639.398 107.409C639.443 99.5909 633.67 94.3182 624.989 94.3182C618.125 94.3182 612.08 97.4091 609.807 102.682C608.625 105.5 607.398 107 604.398 107H597.943C594.58 107 592.534 105.045 593.307 101.727C596.307 89.0454 609.125 80.6364 625.08 80.6364C643.67 80.6364 655.761 92.2273 655.716 106.409C655.761 116.864 648.989 124.364 638.898 126.545V127.273C651.943 129.136 659.216 137.5 659.17 149.136C659.216 164.864 644.716 176.273 624.807 176.273Z" fill="#80C5E2"/>
<path d="M182.749 159.846C180.16 164.331 172.735 167.38 159.775 166.07C147.328 164.812 131.722 159.618 116.078 150.586C100.435 141.554 88.1335 130.636 80.8201 120.486C73.2058 109.917 72.1343 101.963 74.7235 97.4779C77.3127 92.9933 84.7374 89.9438 97.697 91.2539C110.144 92.5122 125.75 97.7062 141.394 106.738C157.038 115.77 169.339 126.688 176.652 136.839C184.267 147.407 185.338 155.362 182.749 159.846Z" stroke="#33AADD" stroke-width="10"/>
<path d="M128.736 191.031C123.558 191.031 117.205 186.125 111.859 174.247C106.725 162.838 103.42 146.726 103.42 128.662C103.42 110.598 106.725 94.4862 111.859 83.0773C117.205 71.199 123.558 66.2937 128.736 66.2937C133.915 66.2937 140.268 71.199 145.613 83.0773C150.747 94.4862 154.052 110.598 154.052 128.662C154.052 146.726 150.747 162.838 145.613 174.247C140.268 186.125 133.915 191.031 128.736 191.031Z" stroke="#33AADD" stroke-width="10"/>
<path d="M74.7235 159.846C72.1343 155.362 73.2058 147.407 80.8201 136.839C88.1335 126.688 100.435 115.77 116.078 106.738C131.722 97.7062 147.328 92.5121 159.775 91.2539C172.735 89.9438 180.16 92.9933 182.749 97.4779C185.338 101.963 184.267 109.917 176.652 120.486C169.339 130.636 157.038 141.554 141.394 150.586C125.75 159.618 110.144 164.812 97.697 166.07C84.7374 167.38 77.3127 164.331 74.7235 159.846Z" stroke="#33AADD" stroke-width="10"/>
<path fill-rule="evenodd" clip-rule="evenodd" d="M216.419 42.0673C216.419 41.515 215.972 41.0673 215.419 41.0673L42.2615 41.0673C41.7092 41.0673 41.2615 41.515 41.2615 42.0673L41.2615 215.225C41.2615 215.778 41.7092 216.225 42.2615 216.225H215.419C215.972 216.225 216.419 215.778 216.419 215.225V42.0673ZM203.91 54.5804C203.91 54.0282 203.462 53.5804 202.91 53.5804L54.7747 53.5804C54.2224 53.5804 53.7747 54.0282 53.7747 54.5804L53.7747 202.716C53.7747 203.268 54.2224 203.716 54.7747 203.716H202.91C203.462 203.716 203.91 203.268 203.91 202.716V54.5804Z" fill="#80C5E2"/>
<path fill-rule="evenodd" clip-rule="evenodd" d="M128.841 256.647C199.533 256.647 256.841 199.339 256.841 128.647C256.841 57.9544 199.533 0.64682 128.841 0.64682C58.1484 0.64682 0.84082 57.9544 0.84082 128.647C0.84082 199.339 58.1484 256.647 128.841 256.647ZM128.769 243.637C192.392 243.637 243.969 192.061 243.969 128.437C243.969 64.8142 192.392 13.2374 128.769 13.2374C65.1459 13.2374 13.5691 64.8142 13.5691 128.437C13.5691 192.061 65.1459 243.637 128.769 243.637Z" fill="#80C5E2"/>
</svg>
