<svg width="38" height="38" viewBox="0 0 38 38" fill="none" xmlns="http://www.w3.org/2000/svg">
<path d="M27.0108 23.5748C26.629 24.2362 25.5314 24.6893 23.6083 24.4949C21.7619 24.3082 19.4465 23.5377 17.1251 22.1974C14.8037 20.8572 12.9787 19.2372 11.8939 17.7316C10.764 16.1633 10.6075 14.9862 10.9894 14.3248C11.3712 13.6635 12.4688 13.2104 14.3919 13.4048C16.2383 13.5915 18.5537 14.362 20.8751 15.7023C23.1965 17.0425 25.0215 18.6625 26.1063 20.1681C27.2362 21.7364 27.3927 22.9135 27.0108 23.5748Z" stroke="#7FC8F1" stroke-width="1.5"/>
<path d="M19 28.1992C18.2363 28.1992 17.2952 27.4752 16.502 25.7125C15.7404 24.0202 15.25 21.6297 15.25 18.9492C15.25 16.2687 15.7404 13.8782 16.502 12.1859C17.2952 10.4232 18.2363 9.69922 19 9.69922C19.7637 9.69922 20.7048 10.4232 21.498 12.1859C22.2596 13.8782 22.75 16.2687 22.75 18.9492C22.75 21.6297 22.2596 24.0202 21.498 25.7125C20.7048 27.4752 19.7637 28.1992 19 28.1992Z" stroke="#58B3E7" stroke-width="1.5"/>
<path d="M10.9892 23.5746C10.6073 22.9132 10.7638 21.7361 11.8937 20.1678C12.9785 18.6622 14.8035 17.0422 17.1249 15.702C19.4463 14.3617 21.7617 13.5912 23.6081 13.4046C25.5312 13.2101 26.6288 13.6632 27.0106 14.3246C27.3925 14.9859 27.236 16.163 26.1061 17.7313C25.0213 19.2369 23.1963 20.8569 20.8749 22.1972C18.5535 23.5374 16.2381 24.3079 14.3917 24.4946C12.4686 24.689 11.371 24.2359 10.9892 23.5746Z" stroke="#30A8EB" stroke-width="1.5"/>
<path fill-rule="evenodd" clip-rule="evenodd" d="M32 7C32 6.44772 31.5523 6 31 6H7C6.44772 6 6 6.44772 6 7V31C6 31.5523 6.44772 32 7 32H31C31.5523 32 32 31.5523 32 31V7ZM30.1431 8.85714C30.1431 8.30486 29.6954 7.85714 29.1431 7.85714H8.85742C8.30514 7.85714 7.85742 8.30486 7.85742 8.85714V29.1429C7.85742 29.6951 8.30514 30.1429 8.85742 30.1429H29.1431C29.6954 30.1429 30.1431 29.6951 30.1431 29.1429V8.85714Z" fill="#7BAECB"/>
<path fill-rule="evenodd" clip-rule="evenodd" d="M19 38C29.4934 38 38 29.4934 38 19C38 8.50659 29.4934 0 19 0C8.50659 0 0 8.50659 0 19C0 29.4934 8.50659 38 19 38ZM18.9994 36.0998C28.4435 36.0998 36.0994 28.4439 36.0994 18.9998C36.0994 9.55573 28.4435 1.89979 18.9994 1.89979C9.55535 1.89979 1.89941 9.55573 1.89941 18.9998C1.89941 28.4439 9.55535 36.0998 18.9994 36.0998Z" fill="#7BAECB"/>
</svg>
