<svg width="257" height="257" viewBox="0 0 257 257" fill="none" xmlns="http://www.w3.org/2000/svg">
<path d="M182.749 159.846C180.16 164.331 172.735 167.38 159.775 166.07C147.328 164.812 131.722 159.618 116.078 150.586C100.435 141.554 88.1335 130.636 80.8201 120.486C73.2058 109.917 72.1343 101.963 74.7235 97.4779C77.3127 92.9933 84.7374 89.9438 97.697 91.2539C110.144 92.5122 125.75 97.7062 141.394 106.738C157.038 115.77 169.339 126.688 176.652 136.839C184.267 147.407 185.338 155.362 182.749 159.846Z" stroke="#33AADD" stroke-width="10"/>
<path d="M128.736 191.031C123.558 191.031 117.205 186.125 111.859 174.247C106.725 162.838 103.42 146.726 103.42 128.662C103.42 110.598 106.725 94.4862 111.859 83.0773C117.205 71.199 123.558 66.2937 128.736 66.2937C133.915 66.2937 140.268 71.199 145.613 83.0773C150.747 94.4862 154.052 110.598 154.052 128.662C154.052 146.726 150.747 162.838 145.613 174.247C140.268 186.125 133.915 191.031 128.736 191.031Z" stroke="#33AADD" stroke-width="10"/>
<path d="M74.7235 159.846C72.1343 155.362 73.2058 147.407 80.8201 136.839C88.1335 126.688 100.435 115.77 116.078 106.738C131.722 97.7062 147.328 92.5121 159.775 91.2539C172.735 89.9438 180.16 92.9933 182.749 97.4779C185.338 101.963 184.267 109.917 176.652 120.486C169.339 130.636 157.038 141.554 141.394 150.586C125.75 159.618 110.144 164.812 97.697 166.07C84.7374 167.38 77.3127 164.331 74.7235 159.846Z" stroke="#33AADD" stroke-width="10"/>
<path fill-rule="evenodd" clip-rule="evenodd" d="M216.419 42.0673C216.419 41.515 215.972 41.0673 215.419 41.0673L42.2615 41.0673C41.7092 41.0673 41.2615 41.515 41.2615 42.0673L41.2615 215.225C41.2615 215.778 41.7092 216.225 42.2615 216.225H215.419C215.972 216.225 216.419 215.778 216.419 215.225V42.0673ZM203.91 54.5804C203.91 54.0282 203.462 53.5804 202.91 53.5804L54.7747 53.5804C54.2224 53.5804 53.7747 54.0282 53.7747 54.5804L53.7747 202.716C53.7747 203.268 54.2224 203.716 54.7747 203.716H202.91C203.462 203.716 203.91 203.268 203.91 202.716V54.5804Z" fill="#80C5E2"/>
<path fill-rule="evenodd" clip-rule="evenodd" d="M128.841 256.647C199.533 256.647 256.841 199.339 256.841 128.647C256.841 57.9544 199.533 0.64682 128.841 0.64682C58.1484 0.64682 0.84082 57.9544 0.84082 128.647C0.84082 199.339 58.1484 256.647 128.841 256.647ZM128.769 243.637C192.392 243.637 243.969 192.061 243.969 128.437C243.969 64.8142 192.392 13.2374 128.769 13.2374C65.1459 13.2374 13.5691 64.8142 13.5691 128.437C13.5691 192.061 65.1459 243.637 128.769 243.637Z" fill="#80C5E2"/>
</svg>
